PathFileType	4	(X/Y/Z)	Patient4_TMGait_0pt2_03_right_22.trc.trc
DataRate	CameraRate	NumFrames	NumMarkers	Units	OrigDataRate	OrigDataStartFrame	OrigNumFrames
47.781569965870	47.781569965870	4	33	mm	47.781569965870	53	       141
Frame#	Time	Sacral			L.Shoulder			Chest			R.Shoulder			Neck			R.ASIS			L.ASIS			R.Thigh.Superior			R.Thigh.Lateral			R.Thigh.Inferior			R.Patella			L.Thigh.Superior			L.Thigh.Lateral			L.Thigh.Inferior			L.Patella			L.Shank.Superior			L.Shank.Lateral			L.Shank.Inferior			R.Shank.Superior			R.Shank.Lateral			R.Shank.Inferior			R.Heel			R.Midfoot.Superior			R.Midfoot.Lateral			R.Toe			L.Heel			L.Midfoot.Lateral			L.Midfoot.Superior			L.Toe			L.Elbow			L.Wrist			R.Elbow			R.Wrist			
		X1	Y1	Z1	X2	Y2	Z2	X3	Y3	Z3	X4	Y4	Z4	X5	Y5	Z5	X6	Y6	Z6	X7	Y7	Z7	X8	Y8	Z8	X9	Y9	Z9	X10	Y10	Z10	X11	Y11	Z11	X12	Y12	Z12	X13	Y13	Z13	X14	Y14	Z14	X15	Y15	Z15	X16	Y16	Z16	X17	Y17	Z17	X18	Y18	Z18	X19	Y19	Z19	X20	Y20	Z20	X21	Y21	Z21	X22	Y22	Z22	X23	Y23	Z23	X24	Y24	Z24	X25	Y25	Z25	X26	Y26	Z26	X27	Y27	Z27	X28	Y28	Z28	X29	Y29	Z29	X30	Y30	Z30	X31	Y31	Z31	X32	Y32	Z32	X33	Y33	Z33	

53	48.148285714286	859.949082053637	991.074752619418	596.815092041434	1047.779608306460	1414.809577934282	409.727041078011	1152.285729079009	1342.399050245779	566.441613344345	1080.709405560909	1418.058202081377	744.056333576762	1030.504251854753	1477.082639060538	567.835388941620	1094.975511606407	922.985048209321	702.656301903366	1067.347631044218	945.486813040296	431.575100648547	1146.031271543851	727.981432867248	651.518793620842	1077.153390403064	608.518341366231	706.041383765231	1151.065419670549	566.913932960533	616.142083598926	1155.626537956144	469.070890855775	617.741752888552	1154.429808233857	772.403728113793	443.379817110672	1104.096733079494	639.737798090195	350.542984852627	1223.087066970885	589.812140709304	406.090498238008	1237.369012486114	499.058052629382	387.835020987449	1165.090361672676	433.463919131171	378.784919821959	1017.556963654346	406.230322212169	334.346650857696	996.781731653045	274.427605082189	379.899913405021	1104.866916173287	383.548142467786	619.439729908897	1015.759169521667	292.257017800302	680.351229101726	1031.018493361734	196.890531988548	607.680708245779	865.311517594109	48.889148052226	578.424331429680	1040.290056047188	96.854885679713	608.189739442285	951.389882338418	38.984943211747	648.615102972819	1158.901175463157	40.379220043317	630.453034004767	801.661931678523	217.367132171353	421.173371068005	854.326125521894	178.494995887575	333.863051371906	960.923794237338	180.634490241460	350.998354879946	1033.552562058512	68.255178344215	306.992231713897	930.591896195891	1080.343841897977	303.121009037084	896.179164971544	822.200340453351	327.572966810479	1118.681849633167	1082.197575348743	891.588509617174	1351.499985133512	974.816959145680	867.167992887382	
54	48.169214285714	858.718503870045	989.096288376151	599.183415203640	1044.315014430362	1414.028223775063	411.328477376961	1150.651857510088	1340.540895423476	566.382471184290	1081.641764736050	1415.471608305852	745.219435227970	1029.072209890705	1475.463681080850	569.780972158689	1094.756675628136	921.525564618996	702.802661262040	1064.757064387244	943.982503144709	432.002005340630	1145.875062154012	726.705404692642	651.443286003419	1077.742641827428	606.989280945953	706.194726138092	1151.287276264938	565.669889609291	615.757976728169	1155.919275435187	467.390458731299	617.312001882487	1153.957383882714	773.386141155735	443.629600983877	1105.614380561500	640.021155501441	350.778467545066	1225.540544286404	592.028903972578	405.888659699598	1241.346376221742	501.545285107447	387.548869800611	1170.041172147222	434.721929794161	378.444593542824	1022.900866444231	405.333219271444	334.007049044453	1004.113201305344	273.206508874255	379.477379583734	1104.189686707418	381.989550796436	619.077469914472	1014.249463238187	291.535112819175	680.261775858284	1028.140786044361	196.126924594104	607.523323561050	861.159874275110	48.974152700818	578.465128964069	1036.055983332965	96.706823971199	608.015490303164	947.209468585980	38.964956625609	648.647820758555	1154.710600567767	40.296655418122	630.467850142852	810.063664430724	213.155504774741	420.921144826628	863.034551250478	175.442802442792	333.370235780654	969.539555505125	179.077010705548	350.377118913650	1043.664024275027	68.127787246981	305.755495703731	916.014658384408	1084.401347510620	306.312299874246	872.257516774216	828.170425226787	336.892204485234	1133.839137237553	1080.224458479111	889.486764494142	1371.768011099397	986.173344345579	860.633403191627	
55	48.190142857143	857.574873165084	987.628157214521	601.484513155043	1040.781953552368	1413.671723900301	412.766098406692	1149.056253451242	1339.091830515099	566.030990271541	1082.775833850323	1413.317107936036	746.080388942547	1027.686273099414	1474.244245354053	571.533838191280	1094.600791780093	920.335036130400	702.587592531061	1061.979935802451	942.936793095109	432.127948151258	1145.258603342646	725.533263887415	650.939465849624	1077.705825816125	605.733021402478	706.077801930011	1150.619058813483	564.534983714565	615.014625893170	1155.173968417104	465.956006435089	616.527635026171	1152.753490920445	774.220007138893	443.427909209851	1105.710859890764	640.210300756925	350.813576976394	1226.287179286410	593.752970171237	405.462458512867	1243.489941303003	503.843545474761	387.173504307230	1173.787492897754	435.755252464539	377.838902154841	1027.723114697806	402.680568873139	333.031494807334	1012.466483371228	270.068495980573	378.129765257904	1102.699120515000	380.682816109344	618.487587620457	1012.255231627576	290.868332045391	680.047737548900	1024.919460743706	195.440137360582	607.258008763913	856.970346191340	48.955173136571	578.515938048244	1031.679013895925	96.462897611723	607.736762233849	942.997568086129	38.908861066480	648.703258145452	1150.493740636905	40.256136131261	630.473698863703	820.494971127135	204.878558394171	419.281027265773	874.224495878834	168.979002107964	331.591000827159	980.423559269518	175.225621830477	348.657796212255	1057.178086328237	66.746849185947	303.555859109963	902.543437821452	1088.824166920980	309.620711346520	850.918909689472	834.616910444521	346.350957968198	1149.014308199108	1079.355157367204	886.909219151930	1391.111539514925	998.701266817927	853.428689968630	
56	48.211071428571	856.523191241621	986.780927294565	603.725305548510	1037.198895466543	1413.787105854833	414.019650635930	1147.540494642661	1338.129846988262	565.354720464490	1084.185629372686	1411.719064763698	746.595816005419	1026.404162093101	1473.504061682273	573.066685849095	1094.497707701493	919.476563200443	701.998502473312	1058.994908989105	942.444646077059	431.941470612194	1144.167913538242	724.536462538235	650.033730049807	1077.003373927614	604.820365252309	705.712266286715	1149.056763786558	563.573495565860	613.966075303580	1153.388089319534	464.831863555374	615.456450560208	1150.818412817866	774.983292544891	442.829383082695	1104.432333493069	640.359466118659	350.684945370462	1225.367179450347	595.022657942888	404.901201211531	1243.842754463120	505.991115277652	386.781538923927	1176.369651731989	436.652114458304	377.038897947637	1032.149576696265	398.446951006947	331.522068045413	1021.957096886574	265.301911284694	375.960375798937	1100.384440360255	379.695835175194	617.722937066888	1009.750814722773	290.319083589807	679.739644530448	1021.366851897286	194.886002534602	606.918447855198	852.750333227502	48.878801612100	578.578661761211	1027.196137856855	96.147821221135	607.380388014412	938.763188977122	38.838713400600	648.777132026656	1146.258889359281	40.239808848729	630.472772073908	833.198062738657	192.960861460195	416.418332107955	888.060318432757	159.531120841305	328.662004567020	993.690807752689	169.447842045155	345.938494789993	1074.096306819863	64.459558356784	300.451085777353	890.196120465247	1093.483496840493	313.088146813308	832.019984289193	841.289521236208	355.757019880005	1164.088253918261	1079.744822800913	883.952850374862	1409.417578431179	1012.488346626173	845.675506619550	
